# File created by Blade
# Date/Time:  Thu Jan 22 19:49:01 2015
# Frame Rate: 120.000 fps
#------------------------------------------------------
:FULLY-SPECIFIED
:DEGREES
3611
root -1.765033 33.529875 4.409827 9.060474 -4.118621 2.915165
RightUpLeg -2.249527 -8.026954 1.092123
RightLeg 3.474695 -0.000000 -0.000000
RightFoot -9.485615 -3.934089 -0.574075
RightToeBase -3.829077 -0.000000 0.000000
LeftUpLeg -3.502619 3.983510 -2.935698
LeftLeg 5.851768 -0.000000 -0.000000
LeftFoot -8.803100 -0.349144 -14.639824
LeftToeBase 1.639140 -0.000000 -0.000000
Spine -10.032832 -2.167826 -1.001849
RightShoulder -19.532240 -11.365902 -28.737946
RightArm 18.438127 28.236605 37.774457
RightForeArm -4.835205 -0.000000 13.023562
RightHand 10.762690 0.000000 3.456550
RightHandThumb1 -24.326973 -0.000000 -32.862282
LeftShoulder -24.249112 6.003599 29.983757
LeftArm 14.076584 -30.448437 -35.383804
LeftForeArm 18.323055 -0.000000 4.313005
LeftHand -2.447610 0.000000 -9.164861
LeftHandThumb1 -26.253704 0.000000 33.147579
Head -5.104763 13.416864 -1.678793
3612
root -1.777114 33.540061 4.430532 9.074053 -4.187856 2.893350
RightUpLeg -2.190879 -7.945430 1.063468
RightLeg 3.383914 -0.000000 -0.000000
RightFoot -9.353707 -3.726486 -0.512922
RightToeBase -3.935370 -0.000000 0.000000
LeftUpLeg -3.479247 4.062786 -2.895793
LeftLeg 5.856433 -0.000000 -0.000000
LeftFoot -8.705506 -0.353794 -14.642447
LeftToeBase 1.354079 -0.000000 -0.000000
Spine -10.170439 -2.110298 -0.975915
RightShoulder -19.464362 -11.240735 -28.645980
RightArm 18.460353 28.235553 37.888317
RightForeArm -5.054757 0.000000 12.929828
RightHand 10.750069 -0.000000 3.423440
RightHandThumb1 -24.326973 -0.000000 -32.862282
LeftShoulder -24.236163 5.944332 29.919580
LeftArm 14.152180 -30.393560 -35.509878
LeftForeArm 18.388940 -0.000000 4.087477
LeftHand -2.448667 -0.000000 -8.911954
LeftHandThumb1 -26.253704 0.000000 33.147579
Head -4.830916 13.175207 -1.653707
3613
root -1.787147 33.546859 4.450776 9.070626 -4.259349 2.874115
RightUpLeg -2.185452 -8.238990 1.042027
RightLeg 3.420291 -0.000000 -0.000000
RightFoot -9.313528 -3.208662 -0.566035
RightToeBase -3.991815 -0.000000 0.000000
LeftUpLeg -3.438744 4.102305 -2.867731
LeftLeg 5.859926 -0.000000 -0.000000
LeftFoot -8.669695 -0.298894 -14.625534
LeftToeBase 1.181675 -0.000000 -0.000000
Spine -10.282168 -2.090135 -0.934377
RightShoulder -19.378739 -11.130953 -28.555846
RightArm 18.516245 28.254337 38.020515
RightForeArm -5.184378 0.000000 12.859653
RightHand 10.637816 -0.000000 3.467283
RightHandThumb1 -24.326973 -0.000000 -32.862282
LeftShoulder -24.244340 5.835165 29.836219
LeftArm 14.127905 -30.467107 -35.608268
LeftForeArm 18.579853 -0.000000 3.985945
LeftHand -2.521925 -0.000000 -8.762765
LeftHandThumb1 -26.253704 0.000000 33.147579
Head -4.576500 12.969723 -1.655292
3614
root -1.799050 33.549166 4.468408 9.064978 -4.333483 2.838679
RightUpLeg -2.111631 -8.315599 1.033439
RightLeg 3.343376 -0.000000 -0.000000
RightFoot -9.330845 -2.843568 -0.333654
RightToeBase -3.663923 -0.000000 0.000000
LeftUpLeg -3.403272 4.149888 -2.827668
LeftLeg 5.885769 -0.000000 -0.000000
LeftFoot -8.701215 -0.238081 -14.585002
LeftToeBase 0.932712 -0.000000 -0.000000
Spine -10.390862 -2.024144 -0.895980
RightShoulder -19.291085 -11.083484 -28.449966
RightArm 18.524582 28.322551 38.151083
RightForeArm -5.334853 -0.000000 12.799507
RightHand 10.620035 -0.000000 3.417758
RightHandThumb1 -24.326973 -0.000000 -32.862282
LeftShoulder -24.230384 5.771550 29.774275
LeftArm 14.182953 -30.524438 -35.777727
LeftForeArm 18.724671 0.000000 3.849886
LeftHand -2.578516 0.000000 -8.580411
LeftHandThumb1 -26.253704 0.000000 33.147579
Head -4.303573 12.733134 -1.642895
3615
root -1.811872 33.545697 4.485870 9.071582 -4.400693 2.810707
RightUpLeg -2.013506 -8.394989 1.034257
RightLeg 3.191980 -0.000000 -0.000000
RightFoot -9.316516 -2.589078 -0.280806
RightToeBase -3.586570 -0.000000 0.000000
LeftUpLeg -3.377730 4.157959 -2.796922
LeftLeg 5.911259 -0.000000 -0.000000
LeftFoot -8.802506 -0.140787 -14.543798
LeftToeBase 0.789124 -0.000000 -0.000000
Spine -10.517429 -1.960862 -0.868319
RightShoulder -19.248307 -11.054367 -28.306870
RightArm 18.611389 28.400046 38.282342
RightForeArm -5.568600 -0.000000 12.689592
RightHand 10.793060 -0.000000 3.270929
RightHandThumb1 -24.326973 -0.000000 -32.862282
LeftShoulder -24.187507 5.680135 29.745377
LeftArm 14.168045 -30.546308 -35.935336
LeftForeArm 18.840731 -0.000000 3.749974
LeftHand -2.669719 -0.000000 -8.290975
LeftHandThumb1 -26.253704 0.000000 33.147579
Head -4.022137 12.519147 -1.622407
3616
root -1.828570 33.537400 4.505225 9.057860 -4.454360 2.770200
RightUpLeg -1.860397 -8.569151 1.057540
RightLeg 2.992995 -0.000000 -0.000000
RightFoot -9.308212 -2.270539 -0.261267
RightToeBase -3.560467 -0.000000 0.000000
LeftUpLeg -3.317071 4.170912 -2.745791
LeftLeg 5.920123 -0.000000 -0.000000
LeftFoot -8.950582 -0.072164 -14.515574
LeftToeBase 0.643420 -0.000000 -0.000000
Spine -10.623346 -1.918007 -0.844234
RightShoulder -19.201569 -10.959917 -28.149305
RightArm 18.673514 28.407678 38.347826
RightForeArm -5.683335 -0.000000 12.552128
RightHand 10.830477 -0.000000 3.260890
RightHandThumb1 -24.326973 -0.000000 -32.862282
LeftShoulder -24.151184 5.611029 29.718374
LeftArm 14.161637 -30.576501 -36.085755
LeftForeArm 18.955618 -0.000000 3.653986
LeftHand -2.766825 -0.000000 -7.945391
LeftHandThumb1 -26.253704 0.000000 33.147579
Head -3.749025 12.377934 -1.585798
3617
root -1.842264 33.524037 4.520144 9.040823 -4.518536 2.728145
RightUpLeg -1.713096 -8.714047 1.082124
RightLeg 2.808602 -0.000000 -0.000000
RightFoot -9.393822 -1.968452 -0.135793
RightToeBase -3.348962 -0.000000 0.000000
LeftUpLeg -3.255060 4.195453 -2.707754
LeftLeg 5.920858 -0.000000 -0.000000
LeftFoot -9.154367 0.018155 -14.430433
LeftToeBase 0.610698 -0.000000 -0.000000
Spine -10.705507 -1.868611 -0.799193
RightShoulder -19.134256 -10.821319 -28.043946
RightArm 18.668207 28.526128 38.474678
RightForeArm -5.943200 -0.000000 12.501508
RightHand 10.693435 -0.000000 3.243254
RightHandThumb1 -24.326973 -0.000000 -32.862282
LeftShoulder -24.117422 5.531801 29.667109
LeftArm 14.126082 -30.592091 -36.227645
LeftForeArm 19.066747 -0.000000 3.565305
LeftHand -2.834278 -0.000000 -7.551887
LeftHandThumb1 -26.253704 0.000000 33.147579
Head -3.506573 12.198832 -1.581282
3618
root -1.856565 33.504965 4.536609 9.014554 -4.587691 2.680721
RightUpLeg -1.523334 -8.853872 1.124099
RightLeg 2.564465 -0.000000 -0.000000
RightFoot -9.502170 -1.675282 -0.067045
RightToeBase -3.022258 -0.000000 0.000000
LeftUpLeg -3.163255 4.229125 -2.672664
LeftLeg 5.891313 -0.000000 -0.000000
LeftFoot -9.407316 0.126211 -14.345792
LeftToeBase 0.690647 -0.000000 -0.000000
Spine -10.780168 -1.807680 -0.750618
RightShoulder -19.109183 -10.797088 -27.887878
RightArm 18.779394 28.695876 38.609647
RightForeArm -6.199988 -0.000000 12.430622
RightHand 10.633227 -0.000000 3.247346
RightHandThumb1 -24.326973 -0.000000 -32.862282
LeftShoulder -24.070002 5.453344 29.636189
LeftArm 14.022041 -30.530014 -36.372220
LeftForeArm 19.144702 -0.000000 3.568215
LeftHand -2.949175 -0.000000 -7.101991
LeftHandThumb1 -26.253704 0.000000 33.147579
Head -3.262590 12.023789 -1.551692
3619
root -1.870508 33.479665 4.553342 8.979192 -4.638058 2.635905
RightUpLeg -1.331852 -9.018665 1.175221
RightLeg 2.360384 -0.000000 -0.000000
RightFoot -9.704910 -1.482050 0.049575
RightToeBase -2.552442 -0.000000 0.000000
LeftUpLeg -3.047838 4.258526 -2.644057
LeftLeg 5.844077 -0.000000 -0.000000
LeftFoot -9.728051 0.240698 -14.256611
LeftToeBase 0.806580 -0.000000 -0.000000
Spine -10.845460 -1.769359 -0.697434
RightShoulder -19.077928 -10.732354 -27.770253
RightArm 18.848511 28.807562 38.722775
RightForeArm -6.354462 -0.000000 12.360467
RightHand 10.541443 0.000000 3.401919
RightHandThumb1 -24.326973 -0.000000 -32.862282
LeftShoulder -24.052449 5.477080 29.601649
LeftArm 14.036039 -30.594840 -36.639338
LeftForeArm 19.309325 -0.000000 3.540350
LeftHand -3.038245 0.000000 -6.699700
LeftHandThumb1 -26.253704 0.000000 33.147579
Head -3.029253 11.878508 -1.542370
